<svg id="Line" xmlns="http://www.w3.org/2000/svg" viewBox="0 0 100 112"><defs><style>.cls-1{fill:none;stroke:#0366d6;stroke-linecap:round;stroke-linejoin:round;}</style></defs><title>13- web-programming-design-construction-1</title><g id="Icons"><path class="cls-1" d="M81.9,52.91V38.52a2.34,2.34,0,0,0-2.33-2.33H58.21a1.94,1.94,0,0,1-1.94-1.94v-19a2.34,2.34,0,0,0-2.33-2.33H9.66A4.65,4.65,0,0,0,5,17.55v46.6a4.65,4.65,0,0,0,4.66,4.66H39"/><line class="cls-1" x1="56.26" y1="17.55" x2="81.89" y2="17.55"/><line class="cls-1" x1="56.26" y1="26.87" x2="81.89" y2="26.87"/><line class="cls-1" x1="65.58" y1="12.89" x2="65.58" y2="36.19"/><line class="cls-1" x1="74.9" y1="12.89" x2="74.9" y2="36.19"/><path class="cls-1" d="M9.66,12.89A4.66,4.66,0,0,0,5,17.55v7H56.26V15.22a2.33,2.33,0,0,0-2.33-2.33Z"/><path class="cls-1" d="M16.65,18.72a2.33,2.33,0,1,1-2.33-2.34A2.33,2.33,0,0,1,16.65,18.72Z"/><path class="cls-1" d="M27.14,18.72a2.33,2.33,0,1,1-2.33-2.34A2.34,2.34,0,0,1,27.14,18.72Z"/><path class="cls-1" d="M36.46,18.72a2.33,2.33,0,1,1-2.33-2.34A2.34,2.34,0,0,1,36.46,18.72Z"/><path class="cls-1" d="M65.72,76l-8.34-8.35,4.94-4.94L70.66,71"/><path class="cls-1" d="M77.25,77.6l13.9,13.9a3.5,3.5,0,0,1-4.94,5l-13.9-13.9"/><path class="cls-1" d="M62.6,59.65a2,2,0,0,1,0,2.75l-5.5,5.49a1.93,1.93,0,0,1-2.74,0l-7.14-7.14a1.94,1.94,0,0,1,0-2.75l5.49-5.49a1.93,1.93,0,0,1,2.74,0Z"/><path class="cls-1" d="M47.49,61a12.83,12.83,0,0,0,0,18.13.79.79,0,0,0,1.35-.61,15.14,15.14,0,0,1,4.42-11.75Z"/><path class="cls-1" d="M59,46.2c-.54,2.68-1,4.32-3,6.26l-.33.32,5.77,5.77.32-.32c1.94-1.94,3.58-2.44,6.27-3Z"/><path class="cls-1" d="M72.48,49.76a1.94,1.94,0,0,1,0,2.75l-2.2,2.2a1.93,1.93,0,0,1-2.74,0l-8.79-8.79a1.94,1.94,0,0,1,0-2.75L61,41a1.93,1.93,0,0,1,2.74,0Z"/><polygon class="cls-1" points="54.09 87.59 50.8 97.47 60.68 94.18 54.09 87.59"/><rect class="cls-1" x="51.25" y="71.38" width="41.94" height="9.32" transform="translate(-32.62 73.33) rotate(-44.99)"/><path class="cls-1" d="M90.34,64.52l-6.59-6.59L87,54.63a4.66,4.66,0,1,1,6.6,6.59Z"/><line class="cls-1" x1="49.09" y1="99.11" x2="50.87" y2="97.33"/></g></svg>