<svg id="Line" xmlns="http://www.w3.org/2000/svg" viewBox="0 0 100 112"><defs><style>.cls-1{fill:none;stroke:#0366d6;stroke-linecap:round;stroke-linejoin:round;}</style></defs><title>10- web-programming-mouse-pointer</title><g id="Icons"><path class="cls-1" d="M16,36H10.58A5.58,5.58,0,0,0,5,41.58V76.94a5.58,5.58,0,0,0,5.58,5.58h54a5.57,5.57,0,0,0,5.58-5.58"/><path class="cls-1" d="M64.56,82.52a5.58,5.58,0,0,0,5.58-5.58V75.08H5v1.86a5.58,5.58,0,0,0,5.58,5.58Z"/><polygon class="cls-1" points="43.16 89.97 31.99 89.97 32.92 82.52 42.23 82.52 43.16 89.97"/><path class="cls-1" d="M49.67,93.69H25.47A3.72,3.72,0,0,1,29.2,90H46A3.72,3.72,0,0,1,49.67,93.69Z"/><path class="cls-1" d="M73.87,61.12a3.73,3.73,0,0,1-3.73,3.72H23.61a3.73,3.73,0,0,1-3.72-3.72V29.48h54V61.12Z"/><path class="cls-1" d="M73.87,29.48h-54V22a3.74,3.74,0,0,1,3.72-3.72H70.14A3.74,3.74,0,0,1,73.87,22v7.45Z"/><path class="cls-1" d="M25.47,22a1.87,1.87,0,1,1-1.86,1.86A1.86,1.86,0,0,1,25.47,22Z"/><path class="cls-1" d="M32.92,22a1.87,1.87,0,1,1-1.86,1.86A1.86,1.86,0,0,1,32.92,22Z"/><path class="cls-1" d="M40.36,22a1.87,1.87,0,1,1-1.86,1.86A1.86,1.86,0,0,1,40.36,22Z"/><path class="cls-1" d="M44.09,46.54a1.55,1.55,0,0,1-1.55,1.55H38.19a1.55,1.55,0,0,1-1.55-1.55V42.2a1.56,1.56,0,0,1,1.55-1.56h4.35a1.56,1.56,0,0,1,1.55,1.56Z"/><path class="cls-1" d="M56.18,46.54a1.54,1.54,0,0,1-1.55,1.55H50.29a1.54,1.54,0,0,1-1.55-1.55V42.2a1.55,1.55,0,0,1,1.55-1.56h4.34a1.55,1.55,0,0,1,1.55,1.56Z"/><path class="cls-1" d="M68.28,46.54a1.54,1.54,0,0,1-1.55,1.55H62.39a1.54,1.54,0,0,1-1.55-1.55V42.2a1.55,1.55,0,0,1,1.55-1.56h4.34a1.55,1.55,0,0,1,1.55,1.56Z"/><path class="cls-1" d="M44.09,57.71a1.56,1.56,0,0,1-1.55,1.55H38.19a1.56,1.56,0,0,1-1.55-1.55V53.36a1.56,1.56,0,0,1,1.55-1.55h4.35a1.56,1.56,0,0,1,1.55,1.55Z"/><path class="cls-1" d="M56.18,57.71a1.55,1.55,0,0,1-1.55,1.55H50.29a1.55,1.55,0,0,1-1.55-1.55V53.36a1.55,1.55,0,0,1,1.55-1.55h4.34a1.55,1.55,0,0,1,1.55,1.55Z"/><path class="cls-1" d="M68.28,57.71a1.55,1.55,0,0,1-1.55,1.55H62.39a1.55,1.55,0,0,1-1.55-1.55V53.36a1.55,1.55,0,0,1,1.55-1.55h4.34a1.55,1.55,0,0,1,1.55,1.55Z"/><path class="cls-1" d="M32.92,35.37a1.55,1.55,0,0,1-1.55,1.55H27a1.55,1.55,0,0,1-1.55-1.55v-.62A1.55,1.55,0,0,1,27,33.2h4.35a1.55,1.55,0,0,1,1.55,1.55Z"/><path class="cls-1" d="M68.28,35.37a1.54,1.54,0,0,1-1.55,1.55H38.19a1.55,1.55,0,0,1-1.55-1.55v-.62a1.55,1.55,0,0,1,1.55-1.55H66.73a1.54,1.54,0,0,1,1.55,1.55Z"/><line class="cls-1" x1="25.47" y1="40.64" x2="32.92" y2="40.64"/><line class="cls-1" x1="25.47" y1="44.37" x2="32.92" y2="44.37"/><line class="cls-1" x1="25.47" y1="48.09" x2="32.92" y2="48.09"/><line class="cls-1" x1="25.47" y1="51.81" x2="32.92" y2="51.81"/><line class="cls-1" x1="25.47" y1="55.53" x2="32.92" y2="55.53"/><line class="cls-1" x1="25.47" y1="59.26" x2="30.13" y2="59.26"/><path class="cls-1" d="M86,79.63c-.27,1-.81,1-1.2.08L78.66,65.06c-.39-1,.06-1.4,1-1l14.65,6.11c1,.39.91.93-.07,1.2l-4.7,1.28a3.62,3.62,0,0,0-2.29,2.29Z"/><circle class="cls-1" cx="37.57" cy="78.8" r="0.78"/><polyline class="cls-1" points="70.14 76.94 70.14 75.08 70.14 68.72"/></g></svg>